<svg width="59" height="32" viewBox="0 0 59 32" fill="none" xmlns="http://www.w3.org/2000/svg">
<g clip-path="url(#clip0_26_211)">
<path d="M17.2651 11.4762C19.333 11.2361 20.2126 12.8681 19.9119 14.6791C19.8491 15.0569 19.6889 15.3566 19.505 15.6908C20.2446 16.6854 20.0202 17.4914 20.0813 18.6729C20.0949 18.935 20.06 19.1956 20.1104 19.4599C19.4911 19.4475 18.7076 19.4644 18.088 19.4867C18.0875 18.8109 18.0584 18.0805 18.0474 17.4006C18.0454 17.2762 17.9985 16.9911 17.8875 16.9136C17.8066 16.8571 17.6787 16.8135 17.5777 16.8149C17.0421 16.8223 16.4891 16.8471 15.9542 16.8697L13.0353 16.9898L9.12037 17.1467C8.40511 17.1745 7.60141 17.187 6.8937 17.2442L6.52584 17.2551C6.58196 17.9561 6.58862 18.6785 6.6278 19.3817C6.64612 19.7103 6.6426 20.0754 6.68766 20.3986C6.04016 20.4056 5.31395 20.4546 4.66158 20.4843C4.67334 19.9731 4.59394 18.9817 4.56864 18.4296L4.37096 14.0787C4.34215 13.4112 4.28246 12.6057 4.28422 11.9485L17.2651 11.4762ZM6.39001 13.8573C6.40139 14.3245 6.41778 14.7916 6.43916 15.2585C6.6433 15.2541 6.84758 15.2519 7.05117 15.2368C9.19804 15.1786 11.3696 15.0628 13.5182 14.9815L15.8557 14.8894C16.3492 14.8714 16.8471 14.863 17.3383 14.8158C17.5022 14.8001 17.6373 14.7784 17.7533 14.6556C18.0321 14.3605 17.9604 13.8067 17.8852 13.4409L17.2598 13.459C15.8791 13.5366 14.4168 13.5665 13.029 13.6146L6.39001 13.8573Z" fill="#FAF9F6"/>
<path d="M33.6944 10.8777C34.3682 10.848 35.3514 10.8391 35.3062 11.8547C35.259 12.9212 33.9548 12.7547 33.2219 12.7847C32.9741 12.7949 32.6861 12.8053 32.419 12.8164L25.8158 13.0614C24.7828 13.0998 23.7438 13.1353 22.7109 13.1818C22.6499 13.188 22.4491 13.1978 22.4166 13.2435C22.2295 13.5067 22.2651 14.0608 22.502 14.2894C22.6176 14.4008 22.7537 14.4476 22.9039 14.455C23.191 14.4692 23.4699 14.434 23.7561 14.4251C24.2023 14.4149 24.6484 14.4052 25.0943 14.394L29.4678 14.2637C30.2284 14.2406 30.9898 14.2157 31.7498 14.2041C32.0606 14.1993 32.3349 14.234 32.5607 14.4585C32.763 14.6485 32.8514 14.9194 32.8477 15.1862C32.8644 15.5095 32.5403 15.9798 32.1969 16.0317C31.5277 16.1329 30.7478 16.1198 30.0676 16.137L25.6814 16.269C25.1459 16.2812 24.6104 16.2966 24.075 16.3151C23.6671 16.326 22.9592 16.2719 22.6135 16.5196C22.3401 16.6956 22.3393 17.6796 22.7182 17.6689C24.3582 17.6225 26.0136 17.5409 27.6541 17.5227C28.0293 17.4962 28.4725 17.499 28.8545 17.4873L31.6063 17.4093L33.5607 17.348C33.9182 17.3379 34.2717 17.3235 34.6283 17.3351C35.3405 17.3581 35.7216 18.1291 35.4082 18.7261C35.3252 18.8992 35.0625 19.144 34.8608 19.1691C34.2149 19.2495 33.5111 19.2438 32.8601 19.2648L27.8637 19.4031L24.449 19.5006C23.878 19.5199 22.9967 19.5989 22.4632 19.5457C20.8931 19.389 20.2075 17.6398 20.5943 16.286C20.6934 15.9394 20.8002 15.742 20.9868 15.466C20.1564 14.6372 20.197 12.7757 21.0176 11.9472C21.6798 11.2787 22.2367 11.306 23.1005 11.2687L25.1373 11.1965L33.6944 10.8777Z" fill="#FAF9F6"/>
<path d="M48.9767 9.83077C49.5275 9.82308 50.2416 9.67585 50.6317 10.1419C50.7991 10.344 50.8751 10.6045 50.8429 10.8632C50.8049 11.1864 50.6012 11.4818 50.2895 11.6025C49.853 11.7715 48.1029 11.7573 47.5423 11.7782L41.3971 12.0076C41.0347 12.0209 38.1075 12.0858 37.9706 12.1905C37.7442 12.4812 37.8352 13.2789 38.2472 13.3552C38.7332 13.4451 39.4292 13.3663 39.9328 13.3516L45.188 13.1998L46.7077 13.1604C47.1617 13.1491 47.7065 13.0576 48.0698 13.3666C48.2625 13.5288 48.3803 13.761 48.3959 14.0101C48.4143 14.2697 48.3279 14.5356 48.1496 14.7291C48.0366 14.8528 47.8886 14.9402 47.7246 14.9803C47.4054 15.0586 46.6409 15.0556 46.275 15.0645C45.6003 15.0799 44.9259 15.1006 44.2515 15.1265C43.1421 15.1264 41.9837 15.2069 40.8665 15.2212C40.0909 15.2522 39.3082 15.2395 38.5356 15.3123C38.2645 15.3397 38.0089 15.539 37.9948 15.8259C37.949 16.7663 38.0864 17.7446 38.0833 18.6874C37.5555 18.6661 36.7223 18.7288 36.1744 18.754C36.1542 17.9981 36.0972 17.2246 36.0667 16.4675C36.0309 15.5821 36.0793 15.1724 36.5388 14.414C35.7233 13.4855 35.7126 11.8186 36.5599 10.9022C37.2132 10.1954 37.8738 10.2476 38.7634 10.2117L40.7688 10.1393L48.9767 9.83077Z" fill="#FAF9F6"/>
<path d="M37.4824 24.8932C37.7852 24.8849 38.105 24.8955 38.4092 24.9008L38.298 25.268C38.4311 25.1731 38.6025 25.0679 38.7581 25.028C41.2477 24.3884 41.5712 26.1948 41.1489 28.0747C40.8283 29.5034 39.4357 30.6702 38.0056 29.9261C37.9197 29.87 37.8137 29.7891 37.7285 29.7278C37.6276 30.4311 37.4608 31.2461 37.3283 31.9488L35.6738 31.9451C35.8758 31.0597 36.0492 30.068 36.2255 29.1715L37.0604 24.9067L37.4824 24.8932ZM38.8056 29.1463C40.2043 28.5182 40.4215 25.4716 39.0407 25.6805C37.6478 26.2778 37.409 29.3602 38.8056 29.1463Z" fill="#FAF9F6"/>
<path d="M20.2393 22.8779C20.8971 22.8455 21.7213 22.9991 22.3718 23.1128C22.3348 23.5024 22.2417 24.01 22.1697 24.397C21.3982 24.1947 19.9945 23.7894 19.3491 24.3648C18.032 25.5391 16.7108 29.6506 20.0331 28.8668C20.1536 28.4444 20.3061 27.3323 20.3833 26.8609C20.9607 26.8355 21.5602 26.8861 22.157 26.8669C22.1244 27.0005 22.0964 27.1744 22.0699 27.3123C21.9188 28.0227 21.7782 28.9377 21.5948 29.6135C20.9767 29.816 19.6368 30.0608 18.9882 30.1127C18.2726 30.1703 17.4074 30.0007 16.8657 29.5088C16.3863 29.0736 16.1198 28.4452 16.1173 27.8019C16.1114 26.3056 16.4196 25.0545 17.4651 23.9386C18.2898 23.0583 19.0864 22.9251 20.2393 22.8779Z" fill="#FAF9F6"/>
<path d="M28.9492 24.8897C29.05 24.8739 29.19 24.8691 29.2917 24.8718C30.5025 24.8963 31.3907 25.4856 31.2602 26.7914C31.1018 28.3775 30.1401 29.7794 28.476 30.0342C27.9062 30.1048 27.3086 30.0643 26.8307 29.7142C26.4938 29.4702 26.2736 29.1006 26.2217 28.6918C26.1092 27.8677 26.4495 26.5683 26.9879 25.9164C27.5468 25.2395 28.0971 24.9948 28.9492 24.8897ZM28.5215 29.1318C29.7794 28.6002 30.1764 25.5791 28.9336 25.6484C27.7153 26.1208 27.2556 29.1809 28.5215 29.1318Z" fill="#FAF9F6"/>
<path d="M35.0771 24.9161C35.4577 24.9002 35.9604 24.9374 36.3778 24.9305C36.1825 26.5624 35.8561 28.364 35.7028 29.9748C35.3113 29.9536 34.8075 29.9652 34.4076 29.9638C34.4226 29.8418 34.4232 29.6792 34.4275 29.5533C33.7879 30.0069 33.1544 30.1561 32.3703 30.0934C31.0845 29.9905 31.5509 28.047 31.6564 27.2409L31.9433 24.9345L33.2861 24.9325L32.9876 27.3997C32.9384 27.8044 32.8574 28.2301 32.8488 28.6361C32.8468 28.7405 32.8511 28.8373 32.9035 28.9306C32.9758 29.0597 33.1043 29.1124 33.2423 29.1502C33.488 29.218 33.7537 29.2188 33.9786 29.0889C34.7761 28.629 34.8314 25.8001 35.0716 24.9352C35.0734 24.9288 35.0754 24.9225 35.0771 24.9161Z" fill="#FAF9F6"/>
<path d="M25.8423 24.863C26.0298 24.8377 26.2523 24.8644 26.4437 24.879C26.4033 25.1049 26.3763 25.4634 26.3507 25.7007C25.4341 25.5044 24.6354 25.8693 24.2203 26.7256C24.0602 27.0559 24.0142 27.5458 23.9373 27.9126C23.7911 28.6104 23.6884 29.3227 23.5243 30.018L22.3325 29.9704C22.2331 29.9687 22.1959 29.9672 22.0961 29.9496C22.0885 29.9374 22.0809 29.9253 22.0732 29.9128C22.3208 28.5599 22.8666 26.1424 23.1021 24.8971C23.5535 24.8879 24.0051 24.8889 24.4565 24.9002C24.4142 25.0398 24.3782 25.2085 24.3437 25.3523C24.9041 25.023 25.1768 24.9108 25.8423 24.863Z" fill="#FAF9F6"/>
<path d="M43.0785 0.862305C49.0986 3.07497 54.453 6.88533 57.1814 12.7673C57.9904 14.5363 58.5323 16.4124 58.7895 18.336C58.8538 18.7993 58.8938 19.2256 58.9298 19.6923C58.9408 19.8343 58.971 20.293 59.0001 20.4113V22.1832C57.8604 22.2037 56.5358 22.1689 55.3864 22.1547L50.5336 22.1069L41.1388 22.0253L14.1637 21.8054L4.85049 21.7193C3.58435 21.7094 2.14712 21.6499 0.897173 21.6748C0.782218 21.6618 0.727663 21.6541 0.611328 21.6622C0.683629 21.6671 0.705316 21.6642 0.770409 21.6326C1.02244 21.5762 1.56501 21.5823 1.85202 21.5656C2.80643 21.5089 3.76115 21.4577 4.71613 21.4118L15.156 20.8929L41.3978 19.5951L50.5785 19.1399C51.8769 19.0696 53.1759 19.0065 54.4749 18.9505C54.5881 16.4294 54.1879 13.9115 53.2977 11.5451C51.4474 6.59074 47.8823 3.28479 43.0851 1.10103L43.0785 0.862305Z" fill="#FAF9F6"/>
<path d="M43.0846 1.10114C42.558 0.84426 41.9358 0.617738 41.3847 0.413256C41.1035 0.308932 40.7949 0.233509 40.5195 0.11662C40.7592 0.0748139 42.7323 0.745315 43.078 0.862422L43.0846 1.10114Z" fill="#FAF9F6"/>
<path d="M0.897273 21.6749C0.746734 21.7081 0.280802 21.7201 0.134766 21.6759C0.296248 21.6509 0.620368 21.594 0.77051 21.6328C0.705417 21.6644 0.683729 21.6673 0.611428 21.6623C0.727763 21.6542 0.782318 21.6619 0.897273 21.6749Z" fill="#FAF9F6"/>
</g>
<defs>
<clipPath id="clip0_26_211">
<rect width="59" height="32" fill="white"/>
</clipPath>
</defs>
</svg>
