<svg width="144" height="23" viewBox="0 0 144 23" fill="none" xmlns="http://www.w3.org/2000/svg">
<g clip-path="url(#clip0_26_179)">
<mask id="mask0_26_179" style="mask-type:luminance" maskUnits="userSpaceOnUse" x="0" y="0" width="144" height="23">
<path d="M0 0H143.232V23H0V0Z" fill="white"/>
</mask>
<g mask="url(#mask0_26_179)">
<path fill-rule="evenodd" clip-rule="evenodd" d="M125.162 16.1305V10.061H121.82V16.7758C121.82 19.0476 124.172 20.8915 127.074 20.8915C129.976 20.8915 132.327 19.0476 132.327 16.7758V10.061H129.01V16.1305C129.01 17.1399 128.148 17.9603 127.087 17.9603C126.026 17.9603 125.164 17.1406 125.164 16.1305H125.162Z" fill="#FAF9F6"/>
<path d="M143.232 2.84668H139.865V20.5132H143.232V2.84668ZM137.543 2.84668H134.177V20.5132H137.543V2.84668Z" fill="#FAF9F6"/>
<path fill-rule="evenodd" clip-rule="evenodd" d="M72.5963 6.5538H70.7665V20.5135H67.1855V3.65771H73.3412C76.144 3.65771 78.414 5.88616 78.414 8.6353C78.414 10.9762 76.767 12.9389 74.55 13.4717L79.4969 20.5135H75.2752L71.6967 14.9948V10.9634H72.5279C73.8498 10.9634 74.9218 9.97505 74.9218 8.75733C74.9218 7.53897 73.9182 6.55124 72.5944 6.55124L72.5963 6.5538Z" fill="#FAF9F6"/>
<path d="M90.0746 15.9733C90.0972 15.7433 90.1074 15.5075 90.1053 15.266C90.1564 11.6237 87.7452 9.62337 84.6728 9.62337C81.6004 9.62337 79.1094 12.1451 79.1094 15.2552C79.1094 18.3653 81.6004 20.8915 84.6728 20.8915C87.0175 20.8915 88.848 19.8303 89.7897 18.1679L87.0578 16.908C86.7083 17.66 85.895 18.1902 84.9488 18.1877C83.6385 18.1858 82.6705 17.2242 82.659 16.0902V15.9752H90.0727L90.0746 15.9733ZM82.6482 14.0375C82.6577 13.4985 82.8784 12.9849 83.2629 12.6072C83.6474 12.2294 84.1648 12.0178 84.7038 12.0178C85.2428 12.0178 85.7602 12.2294 86.1447 12.6072C86.5292 12.9849 86.7499 13.4985 86.7594 14.0375H82.6456H82.6482ZM103.473 20.5132L103.468 2.84668H100.113V11.2059C99.2203 10.3217 98.0313 9.78693 96.7318 9.78693C93.9514 9.78693 91.6987 12.2511 91.6987 15.2922C91.6987 18.3333 93.9514 20.7982 96.7318 20.7982C98.0448 20.7982 99.2337 20.2392 100.129 19.337V20.5126L103.473 20.5132ZM97.6863 17.9321C96.323 17.9321 95.2151 16.7202 95.2151 15.2283C95.2151 13.7365 96.3204 12.5258 97.6863 12.5258C99.0523 12.5258 100.158 13.7365 100.158 15.2283C100.158 16.7202 99.0523 17.9315 97.6863 17.9315V17.9321ZM117.701 11.3382C118.623 10.4782 119.186 9.32693 119.186 8.06257C119.186 6.91768 118.744 5.86351 117.973 5.03679C117.171 4.15257 115.75 3.65743 113.829 3.65743H108.075V20.5132H115.506C118.353 20.4666 120.647 18.3161 120.647 15.6794C120.647 13.7608 119.971 12.3923 117.703 11.3382H117.701ZM114.883 17.5865H111.663V6.55287H113.908C114.894 6.55287 115.694 7.45499 115.694 8.44271C115.694 8.67729 115.648 8.9096 115.558 9.12636C115.469 9.34312 115.337 9.54008 115.171 9.70599C115.006 9.87189 114.809 10.0035 114.592 10.0932C114.375 10.183 114.143 10.2291 113.908 10.229H112.739V13.2593H114.883C116.079 13.2593 116.983 14.2227 116.983 15.4187C116.941 16.6537 116.183 17.5073 114.883 17.5865Z" fill="#FAF9F6"/>
<path d="M30.1982 23C36.5488 23 41.6982 17.8512 41.6982 11.5C41.6982 5.14881 36.5488 0 30.1982 0C23.847 0 18.6982 5.14881 18.6982 11.5C18.6982 17.8512 23.847 23 30.1982 23Z" fill="#808080"/>
<path d="M29.378 16.8351C28.7283 16.4684 28.5999 15.7458 28.26 15.3037C28.1207 15.1287 27.8907 14.9345 27.8287 14.7754C27.2429 13.2765 27.0442 12.4345 26.8384 10.9714C26.7324 10.222 26.2353 9.59015 25.5102 8.70337C25.1939 8.31684 24.7435 7.67795 24.3538 7.30037C23.046 6.19765 22.3387 5.58495 21.466 4.99717C21.2955 4.8815 21.1148 4.78163 20.9262 4.69881H20.9217C20.9184 4.69814 20.9153 4.6966 20.9128 4.69434C20.6214 4.56656 20.3582 4.53078 19.9998 4.51098C19.9521 4.50815 19.9044 4.50666 19.8567 4.50651C19.2063 4.50651 18.5878 4.7429 17.9643 5.22462C17.5113 5.52106 16.9919 5.68653 16.4884 5.84562C15.8534 6.04687 15.1947 6.25706 14.658 6.72537C14.5622 6.79437 14.4747 6.89148 14.3884 6.9822C14.2709 7.10806 14.1872 7.25181 14.0083 7.30931C13.853 7.34445 13.7425 7.34445 13.6166 7.35531C13.4182 7.37026 13.221 7.39843 13.0263 7.43965C12.3657 7.59617 11.8597 8.00315 11.3269 8.4344L11.1454 8.58006C10.8004 8.85415 10.2062 9.10395 9.87019 9.11481C8.93103 9.14356 8.26594 9.36462 7.57403 9.87956C6.85975 10.4258 6.095 10.9893 5.24847 11.3362C5.05404 11.4117 4.84754 11.4513 4.63897 11.4531C4.41792 11.4531 4.10167 11.4046 3.84994 11.1708C3.52922 10.8743 3.42317 10.3038 3.61547 9.92173C3.90297 9.35567 4.48819 8.89376 4.96608 8.55323C5.58261 8.08684 6.17933 7.47479 5.91419 6.46023C5.62861 5.53192 4.49522 5.23356 3.74581 5.03487C3.53369 4.97929 3.34969 4.93073 3.24172 4.88026C3.00533 4.76973 2.83922 4.65665 2.67822 4.54803C2.52186 4.43464 2.35371 4.33847 2.17669 4.26117C2.14667 4.2506 2.11523 4.24457 2.08342 4.24329C1.97779 4.24329 1.89324 4.29418 1.82978 4.39598C1.55953 4.86684 1.48031 5.34665 1.59339 5.81495C1.76781 6.58417 2.52617 7.2844 3.31711 7.40834C3.39633 7.42815 3.48706 7.43517 3.57586 7.44412C3.65764 7.45051 3.74133 7.45945 3.81864 7.47479C3.29378 7.88015 2.81494 8.34184 2.39072 8.85159C1.81189 9.53265 1.65281 10.6577 2.02144 11.4666C2.34025 12.2754 3.14908 12.9341 3.98922 13.067C4.15469 13.0976 4.33422 13.113 4.53675 13.113C4.82872 13.113 5.12261 13.0823 5.40372 13.0516C5.47208 13.0453 5.543 13.0357 5.6088 13.0293C5.63755 13.6701 5.65992 14.0681 6.01578 14.9766C6.0375 15.0341 6.02217 15.1312 5.94742 15.1977C5.88544 15.2526 5.36794 15.4673 5.21972 15.498C5.15703 15.5083 5.0935 15.5128 5.02997 15.5114H4.81786C4.74758 15.5114 4.65622 15.5114 4.56806 15.5241C4.24286 15.5708 4.08186 15.8449 3.96686 16.1106C3.89658 16.2716 3.84547 16.4135 3.80075 16.5349C3.69022 16.8377 3.62186 17.0255 3.40975 17.1405C3.40975 17.1405 2.96764 16.747 2.89225 16.6933C2.78998 16.633 2.67365 16.6006 2.55492 16.5994C2.27636 16.5994 2.02911 16.7764 1.79017 16.9463C1.71782 17.0003 1.64322 17.0513 1.56656 17.099C1.36594 17.2249 1.21517 17.4395 1.17172 17.6625C0.846528 17.8261 0.528361 18.0228 0.380139 18.348C0.309861 18.4873 0.296444 18.6573 0.283028 18.8208C0.277621 18.8985 0.268667 18.9759 0.256194 19.0527C0.230872 19.1047 0.202056 19.1548 0.169944 19.2029C0.0798611 19.3268 0 19.5102 0 19.6233C0 19.8616 0.0881667 19.9523 0.221056 20.0654C0.382694 20.1804 0.82225 20.3145 1.13594 20.3925C1.15884 20.3987 1.18249 20.4017 1.20622 20.4014C1.30206 20.4014 1.37872 20.3522 1.45219 20.3056C1.48733 20.2839 1.52247 20.2596 1.56272 20.2417C1.82147 20.3037 2.20353 20.3835 2.57472 20.3835C2.76724 20.3831 2.94187 20.3618 3.09861 20.3196C3.47683 20.2174 3.79947 19.705 3.97389 19.4284C4.01606 19.362 4.05822 19.2961 4.06908 19.2872C4.07995 19.2818 4.09214 19.2796 4.10422 19.2808C4.16172 19.2808 4.255 19.307 4.35403 19.3358C4.46903 19.369 4.60192 19.406 4.72139 19.4175C5.14753 19.4552 5.5545 19.1901 5.81772 18.9933C5.92569 18.9135 6.04261 18.801 6.15761 18.693C6.28539 18.571 6.41636 18.4451 6.52944 18.3698C6.67878 18.3095 6.83863 18.2795 6.99967 18.2816C7.05717 18.2812 7.12063 18.2841 7.19005 18.2905C7.49672 18.3544 7.89922 18.4298 8.29086 18.4298C8.68186 18.4298 8.9783 18.3634 9.23642 18.2286L9.47536 18.1046C9.73411 17.9724 9.99925 17.8376 10.251 17.7002C10.7372 17.437 10.932 17.0038 11.0911 16.6569L11.1307 16.5687C11.224 16.3675 11.3652 16.0027 11.4029 15.912C11.4774 15.9226 11.5556 15.9277 11.6374 15.9273C11.8999 15.9273 12.1587 15.8723 12.4085 15.8187C12.6538 15.7663 12.91 15.7133 13.1662 15.7133C13.3017 15.7133 13.425 15.726 13.5489 15.7573C14.0089 15.8481 14.6146 15.9522 15.2311 15.9522C15.5505 15.9551 15.8693 15.9216 16.1811 15.8525C16.2521 15.9209 16.3319 15.9803 16.4092 16.0378C16.4859 16.0953 16.5568 16.1483 16.6232 16.2129C16.5523 16.2255 16.4809 16.2351 16.4092 16.2416C16.1946 16.2659 15.9716 16.2902 15.808 16.4652C15.6312 16.3937 15.4416 16.3589 15.2509 16.363C15.0346 16.368 14.8189 16.3887 14.6056 16.425C14.5192 16.4378 14.4351 16.4495 14.3533 16.4601C14.0242 16.4997 13.7987 16.6262 13.6818 16.8403C13.6109 16.9795 13.5579 17.1258 13.6729 17.3641L14.3201 18.4381C14.3999 18.5774 14.5322 18.6905 14.6229 18.6969C14.6714 18.7013 14.736 18.6969 14.8062 18.6905C14.8625 18.6854 14.9185 18.6824 14.9743 18.6815C15.0782 18.6815 15.141 18.6992 15.1627 18.7346C15.1951 18.7848 15.2266 18.8349 15.2573 18.8847C15.3902 19.093 15.5269 19.3096 15.7346 19.4929C16.0489 19.767 16.5549 19.8814 17.0302 19.7715C17.2091 19.7055 17.388 19.6405 17.5669 19.5766C18.1266 19.3754 18.7054 19.1677 19.2663 18.9294L20.1972 18.7965C20.5045 18.7365 20.739 18.3212 20.8163 18.1487L20.8361 18.1091C20.8361 18.1091 21.1172 17.552 21.2028 17.214C21.2073 17.2715 21.2073 17.3482 21.2073 17.4549C21.2073 17.9807 21.3006 18.6464 22.1976 18.6113C22.6972 18.5908 23.3603 18.295 23.8331 18.2088C24.3282 18.1244 24.9735 18.3346 25.4533 18.1001C25.9197 17.9104 26.1874 17.5475 26.2622 17.6229C26.5717 17.9246 26.9393 18.1604 27.3427 18.3159C27.7461 18.4714 28.1768 18.5434 28.6088 18.5276C29.279 18.5058 29.3518 17.9685 28.8835 17.7251C29.7978 17.8312 30.068 17.3367 29.8974 17.177C29.7888 17.0754 29.7249 17.0249 29.378 16.83V16.8351ZM21.1626 16.3355C20.8176 15.8691 20.5927 15.5382 20.5594 15.1114C20.999 15.0603 21.4015 14.9146 22.0557 14.8795C21.8851 15.3855 21.2999 15.6264 21.1606 16.3336L21.1626 16.3355ZM60.0396 19.3045C60.0083 19.2425 59.9776 19.1831 59.9597 19.1383C59.931 19.0393 59.9265 18.9352 59.9201 18.8246C59.9137 18.7033 59.9073 18.5768 59.869 18.4579C59.7655 18.1129 59.3962 17.8983 59.0979 17.7769C59.087 17.6465 59.0627 17.5053 58.9413 17.4191C58.4257 17.0517 58.1561 16.8441 58.0105 16.7336C57.9242 16.6671 57.8936 16.6428 57.8757 16.6365C57.8146 16.608 57.7482 16.5928 57.6808 16.5917C57.4534 16.5917 57.2719 16.7732 57.0956 16.9457L56.9742 17.0651C56.9697 17.0696 56.9678 17.0696 56.9608 17.0696C56.9052 17.0696 56.7902 16.8997 56.7614 16.8224C56.7103 16.685 56.6714 16.5547 56.6311 16.4288C56.5651 16.1944 56.4801 15.9658 56.3768 15.7452C56.1826 15.3587 55.7673 15.3523 55.4 15.3459H55.2965C55.1284 15.3459 54.9067 15.3216 54.8671 15.2105C54.8275 15.1006 54.9093 14.8923 54.9604 14.7402C54.9956 14.6342 55.0288 14.5345 55.0396 14.4374C55.1329 14.0221 55.1393 13.4688 55.0575 13.0203C55.1502 13.0229 55.2428 13.0331 55.3406 13.0446C55.424 13.0561 55.5109 13.0642 55.6012 13.0689H55.6811C56.2337 13.0689 56.7001 12.9603 57.1064 12.7399C57.9261 12.2466 58.4283 11.4512 58.4481 10.6047C58.4194 10.1626 58.3152 9.79778 58.0903 9.34673C57.7875 8.75001 57.2834 8.16223 56.5474 7.55209C56.9736 7.46392 57.3275 7.36042 57.6546 7.15406C58.3222 6.72984 58.618 5.96062 58.4877 4.98631C58.4526 4.75631 58.3638 4.35828 58.1696 4.25478C58.1416 4.23996 58.1105 4.23228 58.0788 4.23242C57.9376 4.23242 57.8003 4.38512 57.6789 4.51992C57.6342 4.57103 57.5907 4.61703 57.553 4.65026C57.3256 4.85342 57.0579 4.90645 56.7774 4.96204C56.6292 4.99079 56.4771 5.02145 56.3327 5.07448C55.6606 5.29362 54.5183 5.79259 54.4161 6.70109C54.3171 7.59873 54.9559 8.20248 55.575 8.78579C55.7801 8.98001 55.9775 9.16337 56.1449 9.35823C56.5027 9.77159 56.8081 10.1824 56.7282 10.6469C56.7001 10.806 56.4746 11.0494 56.2599 11.1465C56.0955 11.2036 55.9268 11.2321 55.7539 11.2321C55.1815 11.2321 54.6307 10.919 54.1471 10.6398L54.0781 10.6002C52.9556 9.82206 51.7954 9.01579 50.3566 8.86245C49.8084 8.75703 49.3331 8.42545 48.8712 8.10217C48.7651 8.02745 48.6582 7.95397 48.5504 7.88176C48.0664 7.5976 47.5333 7.40709 46.9788 7.32017C46.6913 7.28248 46.4638 7.09465 46.223 6.89851C46.0983 6.79043 45.9654 6.69217 45.8256 6.60462C45.2613 6.24048 44.6323 5.98823 43.9728 5.86159C43.9077 5.8419 43.8416 5.82569 43.7747 5.81304C43.6022 5.77726 43.4227 5.73765 43.2988 5.60731C43.109 5.3837 42.8477 5.0962 42.5321 4.87131C42.1098 4.58828 41.4537 4.28737 40.8812 4.28737C40.7655 4.28582 40.6501 4.3 40.5381 4.32953C40.22 4.4094 39.9727 4.59467 39.7114 4.79145L39.6124 4.86428C39.0885 5.27317 38.3921 5.8354 37.8439 6.2264C36.2084 7.39109 35.5938 7.90156 34.783 8.78834C32.6964 11.0666 33.3308 14.477 31.5272 16.4531C31.0609 16.9655 30.9305 17.0319 30.7606 17.1738C30.5497 17.3501 30.5012 18.2899 31.8671 17.8299C31.2442 18.3627 31.6371 18.61 32.046 18.6189C32.7673 18.6343 33.5627 18.3845 34.3428 17.5539C34.8846 18.3333 35.8282 17.9736 36.3189 18.0139C36.7789 18.051 37.6254 18.5506 38.118 18.5218C38.8694 18.4752 39.146 17.7238 39.0706 17.306C39.192 17.306 39.2252 17.2773 39.2584 17.2178C39.3472 17.6529 39.4067 17.9513 39.491 18.1698C39.4982 18.186 39.5076 18.2051 39.5191 18.2273V18.2324C39.5728 18.327 39.6833 18.5371 39.7938 18.6387C39.9216 18.7933 40.1139 18.8138 40.2666 18.8138C40.3286 18.8138 40.3906 18.8093 40.45 18.8074C40.5181 18.8027 40.5844 18.8004 40.6487 18.8004C40.7057 18.8429 40.7603 18.8885 40.8122 18.9371C40.9336 19.0431 41.0576 19.1543 41.2102 19.1958C41.922 19.3792 42.5123 19.5428 43.0847 19.744C43.2017 19.7817 43.3806 19.8303 43.5594 19.8303C43.6178 19.8303 43.6738 19.8251 43.7275 19.8149C44.2718 19.6974 44.7561 19.2316 44.8749 18.7033C44.8839 18.6215 44.9433 18.6145 45.0449 18.61C45.1183 18.6081 45.202 18.6036 45.2487 18.5506C45.5445 18.3142 45.7259 17.989 45.9029 17.6772C45.9395 17.6108 45.9778 17.5439 46.0179 17.4766C46.0635 17.3978 46.0893 17.3092 46.0931 17.2183C46.0968 17.1274 46.0785 17.0369 46.0396 16.9546C45.9821 16.8396 45.8782 16.7566 45.7278 16.7055C45.4448 16.6256 45.1292 16.6186 44.857 16.6186H44.5567C44.4149 16.6186 44.2514 16.6186 44.0923 16.6032L43.9773 16.4774C43.8936 16.402 43.7875 16.3847 43.6834 16.3668L43.6086 16.3541L43.8667 16.1522C43.9702 16.1552 44.0727 16.1566 44.174 16.1566C44.7752 16.1566 45.3279 16.1036 45.8211 16.0001C46.2598 15.8946 46.709 15.8389 47.1602 15.834C47.2203 15.8332 47.2814 15.8346 47.3436 15.8385C47.4173 15.8427 47.4909 15.8479 47.5646 15.8538C47.8342 15.8717 48.1109 15.8921 48.3869 15.8921C48.7517 15.8921 49.0481 15.8583 49.3133 15.788C49.3465 15.9203 49.3727 16.0506 49.397 16.179C49.4941 16.6607 49.5848 17.1163 49.956 17.5117C50.1796 17.7967 50.4709 17.9602 50.7546 18.1219C50.9003 18.2036 51.0485 18.2963 51.1916 18.3915C51.382 18.4886 51.5347 18.5039 51.7532 18.5039C52.0579 18.5039 52.447 18.3736 52.6681 18.3736C53.59 18.3736 54.3017 18.8732 55.0729 19.4763C55.2102 19.567 55.3782 19.6137 55.5706 19.6137C55.8044 19.6137 56.0676 19.5434 56.2976 19.4188L56.3155 19.4456C56.4561 19.6443 56.6049 19.8526 56.8036 20.0143C57.0886 20.2724 57.4578 20.3081 57.7811 20.3081C57.8891 20.3081 58.0015 20.303 58.1101 20.2986C58.2647 20.2922 58.4213 20.2858 58.5721 20.2922C58.6315 20.3759 58.7465 20.4404 58.8372 20.4359C58.9279 20.4315 59.9246 20.1063 59.9776 20.089C60.0306 20.0718 60.1054 20.027 60.1054 20.027C60.3469 19.9031 60.1718 19.5543 60.0441 19.2974L60.0396 19.3045ZM39.3996 16.3681C39.1588 15.889 38.9703 15.4577 38.6719 15.0073C39.3556 15.1683 40.135 15.0903 40.135 15.0903C39.9146 15.4047 39.6622 15.8532 39.3996 16.3681Z" fill="#808080"/>
<path d="M43.6509 16.8422C43.6151 16.7975 43.5448 16.7911 43.5046 16.7911C43.4876 16.7907 43.4705 16.7915 43.4535 16.7937C43.3302 16.809 43.2171 16.8154 43.1002 16.8154C43.0399 16.8151 42.9796 16.8136 42.9194 16.8109C42.8702 16.8109 42.8261 16.8065 42.782 16.8065C42.7092 16.8065 42.6498 16.8109 42.5903 16.8224H42.5763L42.5699 16.8352C42.5609 16.8531 42.3335 17.2505 42.3642 17.5028C42.3974 17.775 42.6734 17.83 42.8836 17.8721C42.959 17.8875 43.0452 17.9028 43.1334 17.9028C43.2833 17.9024 43.3834 17.8523 43.4337 17.7527C43.5432 17.4839 43.6219 17.2035 43.6681 16.917C43.6717 16.9034 43.672 16.8891 43.669 16.8753C43.666 16.8615 43.6598 16.8487 43.6509 16.8378V16.8422ZM58.6667 17.7392C58.5364 17.5514 58.3089 17.4006 58.1275 17.2792C58.0548 17.2347 57.9853 17.1854 57.9192 17.1317L57.8821 17.1048C57.8408 17.0696 57.7883 17.0501 57.7339 17.0499C57.5282 17.0499 57.3052 17.2971 57.3008 17.3808C57.2944 17.5048 57.4707 17.7258 57.7007 18.0005L57.7493 18.06C57.8664 18.1992 57.9916 18.2736 58.1249 18.2829C58.2597 18.2829 58.3658 18.2382 58.4789 18.1328C58.5626 18.0555 58.7485 17.8606 58.6641 17.7411L58.6667 17.7392ZM59.6289 19.3396C59.5972 19.2772 59.5707 19.2122 59.5496 19.1454C59.5305 19.0518 59.5156 18.9574 59.5049 18.8624C59.4858 18.7116 59.4679 18.5685 59.4212 18.458C59.3879 18.3898 59.3365 18.3321 59.2726 18.2911C59.2087 18.2501 59.1348 18.2274 59.059 18.2254C59.0065 18.2248 58.9548 18.2371 58.9082 18.2612C58.6833 18.3736 58.5479 18.4957 58.5856 18.7493C58.7095 19.1186 58.7708 19.3863 58.8533 19.7505C58.8622 19.806 58.8999 19.9894 58.9874 19.9894C58.9947 19.9894 59.0015 19.9888 59.0079 19.9875L59.6557 19.7754C59.6708 19.7709 59.6847 19.7632 59.6965 19.7528C59.7083 19.7425 59.7177 19.7297 59.7241 19.7153C59.7618 19.6291 59.6934 19.4834 59.627 19.3416L59.6289 19.3396Z" fill="#FAF9F6"/>
<path d="M58.4832 19.8565C58.432 19.4585 58.3215 19.0705 58.1555 18.7052L58.1472 18.688H58.1274C57.7511 18.7116 57.5191 18.4068 57.2936 18.1149C57.2189 18.0178 57.1499 17.927 57.0751 17.8478C56.9635 17.7229 56.8431 17.6061 56.7148 17.4983C56.5819 17.3833 56.4695 17.2818 56.4254 17.1917C56.3723 17.0805 56.3148 16.8684 56.2593 16.6627C56.2196 16.517 56.1826 16.3777 56.1468 16.2825L56.1245 16.2231C56.0561 16.0417 55.9743 15.8162 55.7398 15.7791C55.6229 15.7593 55.4945 15.7548 55.3731 15.7503C55.0345 15.7369 54.6946 15.6775 54.5202 15.4341C54.3586 15.2105 54.4244 15.0028 54.5157 14.7824C54.5553 14.6847 54.5841 14.6035 54.6065 14.5103C54.7278 14.1014 54.77 13.5928 54.6767 13.237C54.6617 13.1795 54.644 13.1228 54.6237 13.067C54.5751 12.9188 54.5176 12.6933 54.5534 12.6249C54.5905 12.5565 54.6282 12.545 54.6965 12.545C54.7566 12.545 54.825 12.5655 54.8888 12.5834C54.9355 12.5962 54.9706 12.6025 55.0153 12.614C55.1827 12.6537 55.4351 12.6997 55.6651 12.6997C56.0452 12.6997 56.4445 12.6179 56.7895 12.4697C57.4418 12.154 58.0852 11.4404 58.052 10.5562C57.9657 9.6611 57.4131 8.79668 56.3589 7.91054C56.3346 7.88818 56.3059 7.86582 56.2791 7.8441C56.1423 7.73102 55.9762 7.5879 55.9724 7.4614C55.9686 7.3349 56.297 7.25824 56.5027 7.20968C56.5508 7.19946 56.5934 7.18924 56.6305 7.17902L56.6835 7.1656C56.9467 7.09724 57.2163 7.02632 57.4399 6.87171C58.1913 6.36507 58.1644 5.47446 58.0788 4.98379C58.075 4.97102 58.0711 4.95568 58.0673 4.93779C58.0545 4.87391 58.0366 4.79404 57.9766 4.79404C57.9549 4.79549 57.9344 4.8048 57.9191 4.82024L57.8507 4.88413C57.7645 4.96654 57.6693 5.05918 57.5588 5.12052C57.3205 5.26235 57.033 5.3224 56.757 5.3799C56.58 5.41696 56.3966 5.45465 56.2267 5.51407C55.4792 5.77282 55.0153 6.15104 54.8492 6.63916C54.763 6.89343 54.8096 7.21415 54.9751 7.52338C55.2204 7.91054 55.5718 8.24852 55.9143 8.57563C56.4541 9.09313 57.0106 9.62532 57.139 10.3505C57.2093 10.7721 57.0374 11.1286 56.6151 11.4359C56.3941 11.5682 56.111 11.6391 55.7973 11.6391C55.3997 11.6356 55.0087 11.5371 54.6569 11.3516C54.2193 11.1331 53.797 10.8501 53.3881 10.576C52.7735 10.1652 52.1371 9.74032 51.4324 9.51543C51.1271 9.37552 50.7872 9.30715 50.4594 9.24071C49.993 9.14615 49.5113 9.04904 49.1241 8.74557C48.9912 8.65798 48.8608 8.56658 48.7331 8.47149C48.3818 8.21785 48.0195 7.95399 47.6087 7.85049C47.4554 7.79746 47.3059 7.77766 47.1596 7.75593C46.934 7.72271 46.7245 7.69396 46.5296 7.55468L46.2645 7.36238C45.9374 7.12343 45.5994 6.87618 45.2614 6.7056C44.68 6.41618 44.061 6.26604 43.369 6.1159C43.148 6.06288 43.0113 5.89677 42.865 5.71979C42.7678 5.60096 42.6663 5.47893 42.5378 5.39268C42.0056 4.97102 41.5214 4.68799 40.8978 4.68799C40.8395 4.68799 40.7813 4.69012 40.7234 4.69438C40.3963 4.71674 40.0781 4.96399 39.866 5.1499C39.245 5.69296 38.5755 6.17724 37.9302 6.64618C36.9655 7.34257 35.9713 8.0626 35.1203 8.99346C34.2828 9.85788 33.9799 10.9357 33.6835 11.9815C33.6394 12.1362 33.5979 12.2888 33.5512 12.4435C33.4714 12.729 33.3985 13.0229 33.3276 13.306C32.9436 14.8457 32.5482 16.3848 31.0091 17.3833C30.9075 17.4498 30.9433 17.5782 31.0378 17.6133C31.0781 17.6287 31.7234 17.8453 32.3667 17.2C32.7552 16.7183 32.9718 16.2736 33.4362 15.7765C33.4516 15.7612 33.5046 15.719 33.5487 15.7235C33.58 15.7388 33.5889 15.7548 33.58 15.8098C33.5199 16.0091 33.3985 16.1835 33.2797 16.3535C33.1583 16.5279 33.0337 16.7074 32.9718 16.9125C32.8242 17.3546 32.4127 17.713 32.0479 18.0267C32.0479 18.0267 31.9904 18.0644 31.9578 18.1066C31.9246 18.1481 31.9246 18.166 31.9246 18.166C31.9131 18.2631 31.9904 18.3232 32.1476 18.3295C33.0101 18.3295 33.6241 17.7175 34.2163 17.1227C34.2292 17.1096 34.2448 17.0995 34.262 17.0929C34.2792 17.0864 34.2976 17.0837 34.316 17.085C34.3484 17.084 34.3807 17.0892 34.4112 17.1003C34.4508 17.1227 34.5415 17.2115 34.6118 17.2728C34.8066 17.4453 35.0053 17.6242 35.266 17.6772H35.275C35.5893 17.6332 35.8717 17.598 36.1636 17.598C36.2488 17.5976 36.327 17.6006 36.3981 17.607C36.7118 17.7015 37.0281 17.821 37.3309 17.9341C37.5449 18.0158 37.766 18.0976 37.989 18.1724H37.9985C38.286 18.1615 38.4905 17.8945 38.6413 17.6574C38.7115 17.4894 38.679 17.3258 38.6457 17.1668C38.6259 17.0677 38.6061 16.9751 38.6125 16.8837C38.6655 16.8575 38.7384 16.862 38.8163 16.8729C38.8847 16.8837 38.9837 16.8729 39.0169 16.8684C39.0923 16.8575 39.1715 16.7713 39.1498 16.6588C39.0923 16.3713 38.9486 16.1944 38.8048 15.9733C38.679 15.7855 38.5595 15.6092 38.5001 15.4098C38.4049 15.1466 38.2036 14.9281 38.0094 14.716C37.7839 14.4707 37.5718 14.2381 37.5072 13.9442C37.5072 13.9442 37.4881 13.8822 37.5098 13.858C37.5315 13.8337 37.5916 13.8624 37.5916 13.8624C37.6951 13.9378 37.7992 14.0222 37.8982 14.1033C38.226 14.3691 38.564 14.6451 38.9754 14.707C39.3575 14.7447 39.7772 14.7933 40.1861 14.7582C40.2947 14.7403 40.3496 14.6451 40.3235 14.5543C40.1599 14.2093 39.9919 13.8388 39.8903 13.4337C39.804 13.129 39.6117 12.3265 39.8085 11.7209C39.8283 11.6615 39.8679 11.641 39.9037 11.641C39.9071 11.6406 39.9122 11.6414 39.919 11.6436C39.9855 11.6589 40.0296 11.7388 40.0385 11.8001L40.0449 11.88C40.1024 12.7041 40.1573 13.4823 40.6614 14.1455C40.7962 14.3601 40.9885 14.4726 41.1745 14.5831C41.3022 14.6585 41.4505 14.7268 41.5437 14.8463C41.6498 14.9805 41.667 15.2105 41.5948 15.3498L40.9751 16.2634C40.8295 16.471 40.6876 16.694 40.6371 16.9214C40.5911 17.1514 40.611 17.375 40.6308 17.5916L40.6352 17.644C40.6154 17.6318 40.5992 17.6143 40.5886 17.5935C40.3394 17.1425 40.2883 16.7604 40.4161 16.4665C40.4979 16.2762 41.002 15.5625 41.1476 15.328C41.1943 15.2527 41.232 15.1779 41.1923 15.1268C41.1431 15.0629 40.7656 14.9013 40.6659 14.9013C40.6595 14.9008 40.6529 14.9017 40.6461 14.9038C40.5579 14.9281 40.5004 15.0099 40.4493 15.0827L40.4142 15.1313L39.6513 16.5151L39.6335 16.5662C39.5894 16.7048 39.5504 16.8243 39.5894 16.9834C39.6315 17.191 39.6954 17.4147 39.744 17.5776L39.7842 17.713C39.8526 17.9539 39.9165 18.1794 40.0225 18.3053C40.0544 18.3437 40.0948 18.3741 40.1405 18.394C40.1862 18.414 40.236 18.423 40.2858 18.4203C40.3433 18.4203 40.4027 18.4113 40.4602 18.4024C40.556 18.387 40.6595 18.3762 40.7368 18.396C40.8518 18.4247 40.931 18.511 41.0154 18.5992C41.0991 18.6899 41.1853 18.7825 41.3137 18.8202C41.5501 18.9001 41.7974 18.964 42.0363 19.0259C42.3545 19.1096 42.6841 19.1959 42.9978 19.3173C43.1748 19.3748 43.3646 19.4278 43.5479 19.4278C43.7517 19.4278 43.8776 19.3703 44.0546 19.2272C44.3018 19.0259 44.3836 18.8266 44.4456 18.5397C44.4941 18.2765 44.5823 18.2586 44.7727 18.2478C44.8653 18.2433 44.8787 18.2478 44.9695 18.2171C45.0646 18.1858 45.3406 17.8478 45.4844 17.5718C45.5249 17.496 45.5653 17.4281 45.6058 17.368C45.644 17.3178 45.6651 17.2567 45.6658 17.1936C45.6658 17.0562 45.5508 17.0147 45.478 17.0122H45.4288C45.4288 17.0122 44.6155 17.0058 44.3925 17.0122C44.059 17.03 43.9134 17.3508 43.7958 17.6357C43.7492 17.7462 43.707 17.8478 43.6521 17.9385C43.5639 18.0976 43.3914 18.1947 43.1793 18.1903C43.1173 18.1903 42.98 18.1526 42.9097 18.1353C42.4695 18.0267 42.0165 17.9162 41.8306 17.4785C41.8133 17.4038 41.7846 17.2485 41.8945 17.1182C42.1289 16.8467 42.4388 16.5017 42.757 16.2544C43.1991 16.1612 43.6412 15.834 43.884 15.4232C43.9351 15.3523 43.9613 15.2686 43.9881 15.1888C44.0277 15.0648 44.0648 14.9479 44.1779 14.8751C44.2488 14.8393 44.3063 14.8508 44.3216 14.9128C44.3638 15.1428 44.2775 15.3632 44.1913 15.5772C44.172 15.625 44.1537 15.6731 44.1363 15.7216L44.1229 15.7567L44.1606 15.7612C44.2829 15.7727 44.4072 15.7787 44.5337 15.7791C44.9873 15.7791 45.418 15.7018 45.8358 15.6264C46.2491 15.551 46.6778 15.4737 47.1199 15.4737C47.1668 15.4733 47.2147 15.4741 47.2637 15.4763C47.4605 15.4763 47.6502 15.4935 47.8361 15.5095C48.0176 15.5248 48.2054 15.5427 48.3933 15.5427C48.4591 15.5427 48.521 15.5427 48.583 15.5363C49.1491 15.5095 49.5605 15.2527 49.6838 14.8463C49.8007 14.4994 49.788 13.9008 49.6461 13.0645C49.6397 13.0248 49.6353 12.9987 49.6353 12.9942V12.9788C49.6353 12.9475 49.6353 12.915 49.6774 12.8945C49.7305 12.8658 49.786 12.8945 49.8116 12.9629C50.0263 13.5641 50.1502 14.256 50.2166 14.7313C50.2895 15.1932 50.4818 15.6615 50.8089 16.1612C51.2133 16.7649 51.881 17.1118 52.6387 17.1118C52.8156 17.1118 52.9926 17.0786 53.167 17.0562C53.2884 17.0409 53.3351 17.0473 53.4168 17.0473C54.3809 17.0473 55.2185 17.4651 55.844 18.2548C55.844 18.2548 55.8548 18.2701 55.8548 18.2918C55.8548 18.3251 55.8063 18.3583 55.7641 18.3404L55.6823 18.2765C55.1393 17.8548 54.5771 17.4191 53.8724 17.3329C53.7409 17.3103 53.6077 17.2992 53.4743 17.2997C53.2747 17.3027 53.0755 17.3174 52.8776 17.3437C52.6834 17.3661 52.502 17.3885 52.3141 17.3885C52.0957 17.3925 51.8786 17.3534 51.6752 17.2735C50.8638 17.0051 50.2013 16.0723 49.9886 15.4935C49.9809 15.4772 49.9688 15.4635 49.9537 15.4537C49.9385 15.444 49.9209 15.4388 49.903 15.4386C49.8808 15.4381 49.8578 15.4456 49.834 15.4609C49.7394 15.5203 49.7234 15.551 49.7106 15.6085C49.6972 15.6571 49.7765 16.073 49.8122 16.2519C49.9183 16.694 50.0774 17.3616 50.6562 17.6089C50.7278 17.6519 50.7993 17.6968 50.8709 17.7437C51.1603 17.929 51.4586 18.1219 51.8011 18.1219C51.8833 18.1219 51.9642 18.1108 52.0439 18.0887C52.2504 18.0435 52.4598 18.0207 52.6719 18.0203C53.3395 18.0203 54.018 18.2478 54.5886 18.663C54.6831 18.7186 54.7738 18.7934 54.8601 18.8668C54.984 18.9703 55.1099 19.0764 55.2607 19.132C55.3552 19.1703 55.4568 19.1895 55.5654 19.1895C55.8242 19.1895 55.89 19.1122 56.074 19.0215C56.1414 18.9881 56.2153 18.97 56.2906 18.9684C56.4982 18.9684 56.6132 19.1294 56.7589 19.3352C56.847 19.4591 56.9467 19.5984 57.0815 19.7198C57.2693 19.9031 57.53 19.9255 57.7357 19.9255C57.8488 19.9255 57.9613 19.9165 58.0718 19.9102C58.1778 19.9038 58.3063 19.8987 58.3746 19.8923C58.4411 19.8833 58.4788 19.8744 58.4788 19.8744V19.8482L58.4832 19.8565ZM36.5214 16.7738C36.4844 16.8422 36.3936 16.8818 36.2742 16.8818C36.175 16.8839 36.0773 16.857 35.9931 16.8045C35.8385 16.694 35.7484 16.5106 35.735 16.2698C35.7324 16.2142 35.7286 16.1567 35.8033 16.1017C35.841 16.0794 35.8634 16.0794 35.9075 16.0794C36.055 16.0794 36.2921 16.1746 36.4179 16.3273C36.4269 16.3381 36.6236 16.5988 36.5221 16.7758L36.5214 16.7738ZM36.7342 13.3718C36.6786 13.4427 36.5949 13.4957 36.5131 13.4561C36.4358 13.4293 36.3668 13.3296 36.3253 13.2548C36.2723 13.1597 36.2275 13.0779 36.1017 13.0868H36.0819C35.9713 13.0958 35.8876 13.1507 35.7988 13.2191C35.7548 13.2548 35.5752 13.3877 35.5318 13.4248C35.2909 13.6286 35.0475 13.8382 34.99 14.1231C34.9779 14.174 34.9668 14.2251 34.9568 14.2764C34.9389 14.3755 34.9216 14.479 34.8373 14.532H34.8309C34.8196 14.5388 34.8064 14.5419 34.7932 14.5409C34.7551 14.5396 34.7185 14.5257 34.6891 14.5013C34.674 14.4899 34.6617 14.4752 34.6529 14.4584C34.6442 14.4416 34.6393 14.4231 34.6386 14.4042C34.5965 13.9135 34.7626 13.4714 35.1069 13.1577C35.3305 12.9744 35.5094 12.7444 35.6838 12.5208C35.7682 12.4122 35.8563 12.2997 35.9471 12.1962C36.0154 12.1278 36.1285 12.1853 36.3138 12.3879C36.3911 12.4722 36.6345 12.8862 36.745 13.1577C36.7579 13.1916 36.7634 13.2278 36.7612 13.2639C36.759 13.3 36.7491 13.3353 36.7323 13.3673L36.7342 13.3718ZM40.7943 7.66713C40.7017 7.75593 40.6039 7.8441 40.5068 7.93482C40.1618 8.24852 39.806 8.57371 39.5721 8.94043C39.4616 9.09057 39.3798 9.26307 39.3 9.4311C39.291 9.44899 39.2712 9.48604 39.2335 9.48604C39.214 9.48476 39.1957 9.47608 39.1824 9.46177C39.1166 9.39532 39.1715 8.9334 39.2578 8.70149C39.4482 8.1891 39.8788 7.65179 40.4429 7.22949C40.5054 7.19114 40.5772 7.17059 40.6506 7.17007C40.7566 7.17007 40.8384 7.21863 40.8716 7.30232C40.9419 7.41541 40.9163 7.54766 40.7943 7.66713ZM17.7624 17.3814C17.7425 17.3482 17.7242 17.3141 17.7074 17.2792C17.6499 17.1712 17.6193 17.0562 17.5905 16.9566C17.533 16.756 17.4845 16.5809 17.2653 16.6116C16.9561 16.6563 16.6552 16.6761 16.3198 16.6761C16.3146 16.6761 16.2111 16.6761 16.1779 16.7489C16.1402 16.8333 16.2246 16.9125 16.3153 16.9943C16.3658 17.0409 16.4188 17.0895 16.4539 17.1425C16.5159 17.2332 16.5753 17.3635 16.6328 17.4894C16.7235 17.6907 16.8034 17.8632 16.8941 17.8919C16.9357 17.9038 16.9787 17.9096 17.0219 17.9092C17.2327 17.9092 17.5215 17.7967 17.7317 17.6332C17.8486 17.5335 17.8116 17.467 17.7585 17.3789L17.7624 17.3814ZM2.6469 17.0677L2.62965 17.0543C2.56576 17.0032 2.45076 17.0096 2.37281 17.0633C2.31979 17.1003 2.2642 17.1361 2.21181 17.1719C2.03931 17.2862 1.86042 17.4032 1.67259 17.5622C1.60359 17.6197 1.5659 17.7283 1.55951 17.812C1.55312 17.8785 1.5659 17.9315 1.59273 17.9654C1.60806 17.9826 1.74542 18.1347 1.77417 18.1596C1.83447 18.2133 1.91196 18.2436 1.99267 18.2452C2.05737 18.2437 2.12082 18.2271 2.17795 18.1967C2.51209 18.0293 2.85709 17.4102 2.87051 17.3744C2.90565 17.2754 2.7932 17.1847 2.6469 17.0677ZM1.54609 18.5353C1.47773 18.4382 1.25029 18.1705 1.12187 18.1705C1.11101 18.1705 1.09951 18.1705 1.0912 18.1768C0.91423 18.2497 0.708508 18.4797 0.697647 18.617C0.652925 19.2157 0.635675 19.2796 0.472119 19.4636C0.42548 19.5147 0.394814 19.6335 0.447841 19.6846C0.493841 19.7306 1.08226 19.9165 1.14806 19.9165H1.16148C1.21451 19.8987 1.25859 19.7638 1.3787 19.3505C1.44259 19.1269 1.51542 18.8752 1.5972 18.6477C1.60167 18.6324 1.60359 18.61 1.55056 18.5353H1.54609Z" fill="#FAF9F6"/>
<path d="M19.5772 18.4957C19.8181 18.4778 20.0679 18.4599 20.2448 18.272C20.4685 17.9468 20.6601 17.6204 20.8288 17.2754C20.9789 16.9655 20.9808 16.6627 20.8333 16.4263C20.3886 15.7146 20.3094 15.5267 20.1279 15.0431L20.1235 15.0297L20.1107 15.0252C20.0582 15.0089 20.0064 14.9904 19.9554 14.9696C19.8468 14.9281 19.7318 14.8815 19.6021 14.8815H19.5842C19.4315 14.8859 19.328 14.9345 19.2859 15.0188L19.2795 15.0316L20.0858 16.6231C20.1369 16.747 20.1963 16.8729 20.1656 17.0588C20.1343 17.2441 19.7388 17.8676 19.6194 17.9468C19.5994 17.9633 19.5749 17.9734 19.5491 17.9756C19.5401 17.9756 19.498 17.9673 19.5242 17.874C19.5996 17.6159 19.6948 17.0077 19.6679 16.8135C19.6392 16.5879 18.9632 15.4692 18.9345 15.4207L18.9211 15.4015C18.8169 15.2309 18.709 15.054 18.7179 14.8482C18.7179 14.753 18.8061 14.6872 18.87 14.663C18.9875 14.6182 19.1 14.601 19.2194 14.5742C19.5069 14.5103 19.8027 14.4464 19.9094 14.2847C20.2321 13.7941 20.4237 13.2817 20.5521 12.5719C20.5585 12.5406 20.5809 12.4812 20.625 12.4812C20.6518 12.4812 20.678 12.4901 20.6889 12.5514C20.7473 12.8871 20.7383 13.2309 20.6625 13.5631C20.5867 13.8952 20.4456 14.2089 20.2474 14.486C20.2194 14.5323 20.2092 14.5873 20.2186 14.6406C20.2276 14.6981 20.2915 14.7447 20.2915 14.7447C20.4461 14.8508 21.0121 14.7888 21.423 14.5742C21.7366 14.5805 22.0312 14.5256 22.318 14.4726C22.4092 14.4551 22.4991 14.4389 22.5876 14.424C22.6164 14.4394 22.6388 14.4662 22.6432 14.486C22.4024 14.7575 22.2561 15.0629 22.1813 15.445C22.1128 15.5143 22.0421 15.5815 21.9692 15.6462C21.706 15.8871 21.423 16.1573 21.4095 16.5017C21.4095 16.5017 21.4012 16.6256 21.536 16.6339C21.5776 16.6365 21.6261 16.6148 21.6702 16.5969C21.7135 16.5744 21.7614 16.5622 21.8101 16.5611C21.8307 16.564 21.8496 16.5741 21.8636 16.5895C21.8776 16.6049 21.8858 16.6247 21.8868 16.6454L21.5865 17.085C21.4741 17.2684 21.5226 17.4632 21.5667 17.6536C21.5999 17.7571 21.5846 17.8389 21.6133 17.9315C21.6881 18.1507 21.9558 18.2542 22.1679 18.2542C22.5589 18.2369 22.9154 18.1085 23.2598 17.9845C23.3217 17.9628 23.3811 17.9405 23.445 17.9187C23.8233 17.7552 24.3273 17.722 24.9266 17.8191C25.4083 17.7878 25.7706 17.4696 26.122 17.1604C26.2723 17.1646 26.4272 17.253 26.5865 17.4255C27.1078 17.9845 27.7467 18.2561 28.5402 18.2561H28.6309L28.7101 18.2497C28.7919 18.2305 28.8143 18.1903 28.8187 18.1392C28.8251 18.0778 28.7766 18.0158 28.6884 17.9737L28.2437 17.7373C27.8879 17.5118 27.5013 17.2396 27.3953 16.8812C27.2803 16.4991 27.0656 16.1107 26.9046 15.8519C26.8718 15.7991 26.8371 15.7476 26.8005 15.6973C26.7385 15.6066 26.6727 15.5133 26.628 15.4162C27.1123 15.5887 27.3838 15.9465 27.7115 16.5438C27.9543 16.9879 28.5868 17.4651 29.1855 17.4651C29.2653 17.4651 29.3401 17.4562 29.4155 17.4409C29.4793 17.4281 29.5215 17.3859 29.5305 17.3303C29.5368 17.2818 29.5305 17.2351 29.4774 17.2064L29.1145 17.0256C28.6839 16.7732 28.436 16.3579 28.1952 15.9535C28.1 15.7938 28.0035 15.6309 27.8968 15.4827C27.8285 15.3804 27.709 15.275 27.6055 15.1824C27.5148 15.1006 27.4285 15.0227 27.4125 14.9811C27.0196 13.9065 26.5909 12.6447 26.4868 11.2411C26.4715 11.027 26.3207 10.5562 26.1418 10.2508C25.5828 9.34038 24.2475 7.78213 24.1746 7.70482C24.1286 7.6565 24.0816 7.60921 24.0335 7.56299L23.9977 7.52785L21.5929 5.53004C21.1156 5.19399 20.97 5.13393 20.6231 5.01063C20.38 4.92702 20.1243 4.88596 19.8673 4.88924C19.5267 4.88924 19.1862 4.95504 18.9076 5.07452C18.716 5.17674 18.5301 5.29557 18.3486 5.41057C18.042 5.60735 17.7225 5.81052 17.3781 5.92552C17.1085 6.0469 16.8191 6.13571 16.5386 6.22196C15.9924 6.38935 15.4289 6.5644 14.9823 6.97585C14.852 7.09468 14.7459 7.19435 14.6571 7.2806C14.2444 7.66968 14.2022 7.71121 13.8643 7.71121C13.0816 7.71121 12.5271 7.90352 11.9476 8.37438C11.4901 8.78965 11.0372 9.17938 10.5088 9.36274C10.2724 9.44452 10.0092 9.47518 9.73065 9.50202C9.3307 9.53716 9.26873 9.54163 8.89115 9.63235C8.32062 9.76268 7.71559 10.2329 7.20448 10.6309C7.03645 10.7613 6.81348 10.9338 6.70742 11.0028C6.65184 11.0379 6.58604 11.0794 6.53237 11.1114C5.89604 11.4819 5.29676 11.8333 4.52754 11.8333H4.47004C3.89567 11.7918 3.37434 11.3957 3.19929 10.8718C3.03829 10.2821 3.21079 9.67643 3.67654 9.21196C3.89759 8.9909 4.14931 8.77688 4.39529 8.56924C4.78884 8.2351 5.16004 7.91885 5.41879 7.57257C5.71906 7.17007 5.68584 6.49157 5.34787 6.12229C5.01181 5.75302 4.26048 5.56966 3.97745 5.50129L3.9289 5.48979C3.90015 5.48341 3.85159 5.47702 3.82476 5.47063C3.64587 5.43485 3.47337 5.41057 3.29895 5.3684C2.85237 5.24702 2.50545 4.9001 2.10998 4.68799C1.95729 4.92182 1.90617 5.1761 1.92662 5.45913C2.00137 6.05585 2.49906 6.67493 3.05106 6.92666C3.07534 6.9356 3.0977 6.94646 3.12198 6.95349C3.2964 7.02824 3.47976 7.03974 3.65226 7.03974H3.87587C3.98192 7.03974 4.11034 7.03974 4.2247 7.06849C4.28544 7.08602 4.33977 7.12085 4.38106 7.16872C4.42236 7.21659 4.44883 7.27544 4.45726 7.3381C4.4662 7.41732 4.43042 7.47929 4.32948 7.5566L4.04837 7.78852C3.57304 8.18016 3.08237 8.58713 2.68434 9.07907C2.14959 9.65663 2.12531 10.6597 2.37512 11.3094C2.69329 12.1655 3.57304 12.6447 4.30456 12.7374C4.4349 12.7572 4.56523 12.7687 4.70259 12.7687C5.1332 12.7687 5.54209 12.6645 5.94012 12.5648C5.95503 12.561 5.96759 12.5595 5.97781 12.5604C5.9957 12.5604 6.03084 12.5604 6.03723 12.6511C6.04873 12.8281 6.05959 13.0293 6.06854 13.2235C6.08131 13.5398 6.09729 13.8382 6.11965 13.9647C6.17204 14.2451 6.31131 14.5876 6.40459 14.8131C6.4442 14.9083 6.47487 14.983 6.48381 15.0207C6.51959 15.1485 6.48637 15.2884 6.40012 15.3677C6.09984 15.6443 5.48651 15.8628 5.37406 15.8788C5.19326 15.9005 5.00095 15.9114 4.85912 15.9184C4.78884 15.9222 4.73134 15.9248 4.70259 15.9292C4.63922 15.9358 4.57998 15.9638 4.53456 16.0085C4.44831 16.0928 4.35567 16.3337 4.24515 16.6122C4.1787 16.7802 4.11226 16.9547 4.0439 17.0984C3.85159 17.4166 3.53087 17.6044 3.21973 17.7833C3.14136 17.828 3.06469 17.8738 2.98973 17.9207L2.98079 17.9296C2.85301 18.1328 2.72395 18.3251 2.55848 18.4707C2.4307 18.5902 2.26651 18.617 2.10742 18.6368H2.09656L2.09017 18.6458C1.84676 18.9243 1.76945 19.293 1.69215 19.6533C1.68065 19.7091 1.66872 19.7636 1.65637 19.8169L1.64551 19.868H1.67681C1.80459 19.8833 1.93237 19.9102 2.06781 19.9408C2.2467 19.9804 2.43006 20.0207 2.61151 20.0207C2.78401 20.0207 2.92967 19.9849 3.06256 19.9121C3.29448 19.806 3.41842 19.5913 3.53981 19.3863C3.61967 19.2515 3.70145 19.1096 3.81198 19.0017C3.84272 18.9667 3.88086 18.9391 3.92363 18.9207C3.9664 18.9024 4.01273 18.8938 4.05923 18.8956C4.14995 18.8956 4.24962 18.9218 4.34417 18.9486C4.43298 18.9729 4.52306 18.9972 4.60931 19.0017C5.03865 19.0259 5.44498 18.7563 5.64176 18.5992C5.72801 18.5308 5.81426 18.449 5.89795 18.3717C6.02829 18.2503 6.16117 18.1238 6.30492 18.0357C6.47934 17.9513 6.68954 17.9117 6.9502 17.9117C7.27284 17.9117 7.61529 17.9756 7.88745 18.0267C8.03247 18.0644 8.18165 18.0837 8.33148 18.0842C8.57613 18.0887 8.81772 18.0292 9.03234 17.9117C9.27129 17.7775 9.51151 17.651 9.70445 17.5495C9.8169 17.4894 9.91656 17.4389 9.99387 17.3948C10.3363 17.207 10.6283 16.685 10.7363 16.4685C10.8385 16.2672 11.011 15.8321 11.0129 15.8277L11.0218 15.8078L10.6213 15.5025L10.6059 15.5293C10.6059 15.5293 10.3408 15.9644 10.1708 16.1656C9.46551 17.1252 8.31806 17.2485 7.39679 17.2485C7.3329 17.246 7.26943 17.2445 7.2064 17.2441C6.06598 17.2441 5.14662 17.6268 4.47451 18.3826C4.44384 18.4177 4.38826 18.4247 4.3659 18.3934C4.35312 18.3762 4.34865 18.3474 4.35759 18.3117C4.3712 18.2444 4.39673 18.1802 4.43298 18.1219C5.14662 17.1073 6.3669 16.9572 7.35015 16.9393C8.0772 16.8908 8.60556 16.7649 9.06556 16.5304C9.6559 16.2302 10.091 15.567 10.2635 15.0405C10.3759 14.6955 10.4315 14.3269 10.4845 13.971C10.5267 13.688 10.5708 13.396 10.6411 13.1264C10.6475 13.1097 10.6587 13.0953 10.6734 13.085C10.6881 13.0748 10.7056 13.0692 10.7235 13.0689C10.7318 13.0689 10.7388 13.0689 10.7516 13.0753C10.7899 13.0823 10.8602 13.1085 10.8602 13.1641C10.7605 13.7212 10.6257 14.486 10.88 15.1223C10.9995 15.374 11.2512 15.498 11.6537 15.498C11.8965 15.498 12.1623 15.4558 12.4204 15.4162C12.6197 15.3855 12.8075 15.3542 12.9685 15.3479C13.0367 15.3415 13.1061 15.3385 13.1768 15.3389C13.4969 15.3389 13.8068 15.4009 14.1051 15.4603C14.3658 15.5133 14.6354 15.5663 14.9114 15.5798C14.9608 15.5823 15.0132 15.5862 15.0686 15.5913C15.1638 15.5996 15.2628 15.6066 15.365 15.6066C15.5988 15.6066 15.765 15.56 15.8844 15.4628C15.9681 15.3945 15.9394 15.2903 15.9017 15.16L15.8953 15.1357C15.8893 15.1132 15.8819 15.0889 15.8729 15.0629C15.8199 14.8904 15.7388 14.6297 15.8729 14.5077C15.8948 14.4918 15.9212 14.4833 15.9483 14.4834C15.97 14.4834 16.0013 14.4898 16.0103 14.5256L16.0544 14.6757C16.1138 14.884 16.1758 15.1006 16.3086 15.2859C16.5898 15.6437 17.0223 15.9842 17.5615 16.2653C17.9091 16.5036 18.3263 16.9061 18.3601 17.4677C18.3601 17.722 18.1122 17.8983 17.9289 18.0088C17.6388 18.1526 17.1437 18.3142 16.9098 18.3142C16.8788 18.3165 16.8477 18.3113 16.8191 18.2989C16.4831 18.12 16.3106 17.8299 16.1272 17.5226C16.0314 17.3541 15.9229 17.193 15.8026 17.0409C15.6276 16.8467 15.4065 16.7713 15.1082 16.7956C14.8207 16.8179 14.5555 16.8729 14.2418 16.9393C14.2113 16.9446 14.1825 16.9573 14.1579 16.9762C14.1333 16.9951 14.1136 17.0198 14.1006 17.0479C14.087 17.0815 14.0814 17.1177 14.0844 17.1538C14.0874 17.1899 14.0989 17.2248 14.1179 17.2556C14.2815 17.5469 14.4386 17.812 14.6066 18.0925L14.682 18.219C14.7216 18.2874 14.8079 18.2963 14.8782 18.2963C14.9165 18.2963 14.9578 18.2942 15.0021 18.2899C15.049 18.2865 15.0969 18.2844 15.1459 18.2835C15.2915 18.2835 15.3848 18.3187 15.4442 18.3915C15.4953 18.4682 15.5394 18.5506 15.5835 18.6298C15.694 18.8266 15.8071 19.0323 15.9969 19.178C16.1694 19.3313 16.4185 19.4169 16.6798 19.4169C16.7948 19.4169 16.9054 19.399 17.0114 19.3684C17.7653 19.132 18.4988 18.8892 19.1971 18.5155C19.1971 18.5155 19.4737 18.511 19.5798 18.502L19.5772 18.4957ZM20.8307 10.0432C20.8179 10.0898 20.7885 10.1205 20.7553 10.1205C20.7425 10.1205 20.7068 10.1141 20.6959 10.054C20.57 9.41129 20.4946 9.09504 20.3464 8.7986C20.3004 8.70404 20.2404 8.62418 20.1899 8.55327C20.0813 8.40568 19.9886 8.27918 20.0928 8.10732C20.1235 8.05621 20.2008 8.02299 20.2845 8.02299C20.3266 8.02341 20.3643 8.03151 20.3975 8.04727C20.5215 8.10732 20.6429 8.25746 20.7668 8.50727C21.076 9.14168 20.8307 10.0368 20.8281 10.0457L20.8307 10.0432ZM24.8736 16.4487C24.8736 16.4487 24.8531 16.6301 24.7695 16.7093C24.6832 16.7866 24.3785 16.8288 24.2168 16.8243C24.0558 16.8179 24.0002 16.7956 23.9676 16.747C23.9293 16.6914 23.9913 16.5835 23.9913 16.5835C24.0111 16.5438 24.1989 16.1522 24.5791 16.0487C24.5791 16.0487 24.7005 16.004 24.818 16.0615C24.9349 16.119 24.88 16.411 24.8755 16.4512L24.8736 16.4487ZM25.9738 13.9199C25.9626 14.0093 25.9358 14.096 25.8945 14.1761C25.8747 14.2119 25.8415 14.2892 25.731 14.2911C25.6096 14.2911 25.6179 14.1499 25.6179 14.1301C25.6179 14.1301 25.6026 13.734 25.5272 13.5685C25.4454 13.3871 25.048 12.8766 24.818 12.899C24.7605 12.9035 24.6104 12.9942 24.4998 13.1373C24.365 13.3123 24.365 13.3341 24.3229 13.3609C24.2807 13.3877 24.2277 13.3737 24.2104 13.2702C24.1925 13.166 24.1721 13.0824 24.2213 12.8856C24.2698 12.6888 24.3184 12.6447 24.3759 12.5035C24.3759 12.5035 24.4954 12.2269 24.5395 12.1585C24.6634 11.9707 24.827 11.9841 24.827 11.9841C24.871 11.986 25.0122 11.9681 25.1656 12.1585C25.3419 12.3796 25.3042 12.3598 25.3528 12.4371C25.4013 12.5137 25.455 12.5962 25.6006 12.7552C25.7463 12.915 25.9073 13.2235 25.952 13.4159C25.9961 13.6082 25.9942 13.7717 25.9693 13.9206L25.9738 13.9199Z" fill="#FAF9F6"/>
</g>
</g>
<defs>
<clipPath id="clip0_26_179">
<rect width="143.75" height="23" fill="white"/>
</clipPath>
</defs>
</svg>
