<svg width="78" height="24" viewBox="0 0 78 24" fill="none" xmlns="http://www.w3.org/2000/svg">
<g clip-path="url(#clip0_20_363)">
<path d="M54.6391 1.84141C54.6391 1.84141 53.1769 2.41237 51.4764 4.25086C49.7758 6.08936 48.7854 8.15674 49.5184 8.70655C49.7999 8.91553 50.4492 8.95533 51.6273 7.91045C52.7145 6.98451 53.5679 5.82378 54.1204 4.51955C54.8813 2.69971 54.6391 1.8638 54.6391 1.8439M63.9459 5.14897C62.0564 4.19862 60.6754 3.03432 59.2386 2.3141C57.8678 1.62373 56.9813 1.33514 55.873 1.48068C55.7184 1.50771 55.5658 1.54512 55.4165 1.59263C55.4165 1.59263 55.9871 3.50452 53.7159 6.71629C51.4155 9.97285 49.3282 9.95046 48.7347 9.05609C48.1133 8.11196 48.916 6.18763 50.2565 4.47477C51.6603 2.68354 54.1255 1.19831 54.1255 1.19831C54.1255 1.19831 53.3393 0.726867 51.4092 1.80036C49.526 2.84276 46.2847 5.33058 43.2767 9.52628C40.2687 13.722 39.6727 16.0307 39.2415 17.848C38.8103 19.6654 39.2022 21.6121 41.2566 21.6121C43.3109 21.6121 45.7026 18.5384 46.3773 17.4699C47.6314 15.4796 48.4494 12.4271 46.7425 12.8463C45.9017 13.0528 45.2207 13.9658 44.7908 14.8452C44.5194 15.4101 44.3119 16.0024 44.172 16.6116C43.5755 16.8527 43.0154 17.1724 42.5069 17.5619C41.9413 17.9729 41.4127 18.4307 40.9268 18.9302C40.9268 18.9302 40.9344 17.4774 42.1151 15.1264C43.2957 12.7754 45.4629 11.7019 46.6905 11.6011C47.7963 11.5141 49.2356 12.4345 48.0157 15.8304C46.7957 19.2263 43.1968 23.3548 39.4165 23.4058C35.9279 23.4531 33.6453 19.0857 38.5009 11.4643C43.8752 3.04427 50.1791 0.46067 52.2259 0.173327C54.2726 -0.114016 54.9384 0.771648 54.9384 0.771648C56.1704 0.275832 57.5011 0.0606259 58.8303 0.142229C61.3297 0.307669 63.2624 2.04292 65.8138 3.26196C65.1506 3.88391 64.5178 4.53696 63.9472 5.14897M75.1752 2.3141C73.4429 3.40376 71.0461 4.39143 68.7432 4.17996C68.1599 4.77082 67.536 5.45497 66.9108 6.20131C70.9041 6.97627 74.4029 4.5494 76.2632 2.48327C76.9414 1.74042 77.524 0.918676 77.998 0.0364971C77.1511 0.901818 76.2032 1.66628 75.1739 2.3141M69.8566 13.3501C69.8869 13.2984 69.9115 13.2438 69.9302 13.1871C69.9183 13.0974 69.8755 13.0144 69.8088 12.9519C69.7421 12.8895 69.6556 12.8513 69.5637 12.8438C69.1833 12.8264 68.6646 12.8973 67.3039 14.375C66.1751 15.5954 65.2036 16.9473 64.4113 18.4003C63.6327 19.796 63.3169 20.8359 63.7645 21.1046C63.91 21.1785 64.0786 21.1954 64.2363 21.1519C64.5394 21.081 64.883 20.8023 65.4055 20.209C65.6503 19.9303 65.9216 19.536 66.2463 19.0994C67.1466 17.8978 69.409 14.1151 69.8566 13.3501ZM55.7221 14.9572C55.9491 14.375 56.2382 13.2319 55.6371 12.7828C54.9916 12.3064 53.3456 13.4247 53.3367 14.5716C53.3253 15.7458 54.4958 16.277 54.7761 16.3516C54.9358 16.3939 54.9916 16.3877 55.069 16.2621C55.3172 15.8425 55.5355 15.4065 55.7221 14.9572ZM54.4768 17.093C54.0689 16.9082 53.6884 16.6701 53.3456 16.3852C53.0019 16.1024 52.7147 15.7595 52.4985 15.3739C52.4757 15.3366 52.4529 15.3652 52.4275 15.3988C52.4021 15.4324 52.3007 15.5232 51.4231 16.7845C50.5456 18.0458 49.1976 20.6593 50.4175 21.1046C51.1987 21.3895 52.4985 20.0473 53.2074 19.1579C53.6904 18.5371 54.1281 17.8837 54.5174 17.2025C54.5541 17.1266 54.5174 17.1092 54.478 17.093M68.3159 20.112C67.9849 20.6319 67.607 21.6295 68.6963 21.0088C70.0291 20.2538 71.9275 17.4288 71.9275 17.4288H72.7885C72.0051 18.6105 71.1327 19.7332 70.1787 20.7874C68.8282 22.2552 67.1809 23.5887 66.0205 23.4568C64.6649 23.3013 65.0897 21.5561 65.0897 21.5561C65.0897 21.5561 63.1508 23.5812 61.8091 23.4357C59.9969 23.2391 60.5498 21.0424 60.5498 21.0424C60.5498 21.0424 58.5005 23.5091 57.1043 23.4332C54.9156 23.3088 55.4659 20.6966 56.0746 18.8569C56.4005 17.8729 56.7023 17.1005 56.7023 17.1005C56.7023 17.1005 56.4855 17.1564 56.0188 17.2248C55.7753 17.2584 55.3315 17.2833 55.3315 17.2833C55.3315 17.2833 54.4197 18.8606 53.6905 19.8084C52.9614 20.7563 49.8621 24.0241 48.0385 23.3698C46.3519 22.7652 46.9099 20.2326 47.8914 18.22C49.3244 15.2856 53.3545 11.07 55.679 11.6272C58.0884 12.2007 55.7335 16.5133 55.7335 16.5133C55.7335 16.5133 55.7335 16.5295 55.7589 16.5407C55.807 16.5581 55.9326 16.5718 56.223 16.5158C56.5239 16.4556 56.8189 16.3694 57.1043 16.2583C57.1043 16.2583 59.5265 11.2827 62.2022 8.02737C64.878 4.77206 70.2155 -0.83424 72.3105 0.521622C72.8177 0.85499 72.5894 2.00312 71.8996 3.3963C71.5889 3.4953 71.2731 3.57834 70.9536 3.64508C71.4152 2.82285 71.7208 2.13 71.8121 1.64612C72.1278 -0.0356498 68.1244 3.51198 65.2635 7.32332C63.5402 9.62101 62.0092 12.0517 60.6855 14.5915C61.2023 14.2823 61.6957 13.9368 62.1616 13.5578C63.4377 12.5199 64.6505 11.4092 65.7936 10.2316C66.8943 9.12623 67.9267 7.95736 68.8852 6.73122C69.1898 6.71677 69.4933 6.68604 69.7945 6.63917C68.7493 8.03064 67.6097 9.35135 66.3832 10.5923C65.2419 11.7243 64.0068 12.9421 62.9339 13.8265C61.9757 14.6258 60.9649 15.3626 59.9082 16.0319C59.9082 16.0319 57.4062 20.9815 58.7669 21.2986C59.567 21.4877 61.1471 19.1007 61.1471 19.1007C61.1471 19.1007 63.2091 16.0145 64.4519 14.6226C66.1474 12.7318 67.607 11.6372 69.0653 11.6173C69.915 11.6024 70.4159 12.488 70.4159 12.488L70.8153 11.881H73.2755C73.2755 11.881 68.6811 19.5286 68.3133 20.1045M75.1739 2.3141C73.4416 3.40376 71.0449 4.39143 68.742 4.17996C68.1586 4.77082 67.5347 5.45497 66.9095 6.20131C70.9028 6.97627 74.4016 4.5494 76.2619 2.48327C76.9406 1.74049 77.5236 0.918742 77.998 0.0364971C77.1511 0.901818 76.2032 1.66628 75.1739 2.3141ZM40.6238 6.06573H38.2841L36.9614 8.16172H39.3011L40.6238 6.06573ZM29.5454 13.3239C30.5409 11.9855 33.2876 7.29471 33.2876 7.29471C33.2761 7.20511 33.2335 7.12213 33.167 7.05964C33.1005 6.99715 33.0142 6.95894 32.9224 6.95139C32.542 6.93398 31.9079 7.05961 30.6487 8.60579C29.3894 10.152 28.4117 11.3822 27.699 12.6622C26.9178 14.0591 26.5767 15.0443 27.0256 15.3117C27.1713 15.3833 27.3387 15.4001 27.4961 15.359C27.7878 15.2868 28.1695 14.9995 28.6932 14.4086C28.9392 14.1325 29.2182 13.7606 29.5454 13.3239ZM16.9909 6.98C16.3442 6.5011 14.6994 7.62186 14.6906 8.76626C14.6804 9.94175 16.1705 10.3012 16.3632 10.3099C16.4199 10.3146 16.4768 10.3029 16.5268 10.2764C16.5612 10.2567 16.5886 10.2272 16.6054 10.1918C16.7806 9.85409 16.9381 9.50783 17.0772 9.15436C17.3042 8.57221 17.592 7.42905 16.9909 6.98ZM16.0157 11.0264C15.5698 10.8898 15.1436 10.6975 14.7476 10.4542C14.3639 10.2089 14.0519 9.86978 13.8422 9.47031C13.8194 9.43299 13.794 9.4616 13.7712 9.49519C13.7483 9.52877 13.6165 9.69048 12.7364 10.9568C11.8563 12.2231 10.5527 14.8129 11.7739 15.2582C12.5525 15.5481 13.8675 14.1947 14.5815 13.309C15.1158 12.613 15.6094 11.8879 16.0601 11.1371C16.0893 11.0613 16.0601 11.0439 16.017 11.0302M35.1252 11.8064H35.9824C35.9824 11.8064 31.6873 17.9015 29.2613 17.6179C27.907 17.4624 28.309 15.823 28.309 15.823C28.309 15.823 26.4068 18.0073 24.6593 17.5644C23.0741 17.1651 24.0975 14.579 24.0975 14.579C23.9174 14.6499 20.4872 18.4426 18.0765 17.5333C15.5542 16.578 16.8641 13.4023 17.3435 12.447C17.7505 11.6422 18.2007 10.8585 18.2007 10.8585C18.2007 10.8585 17.814 10.9655 17.5667 11.0202C17.3194 11.075 16.9618 11.1446 16.9618 11.1446C16.9618 11.1446 15.7685 13.0465 15.0393 13.9957C14.3101 14.9448 11.2108 18.2063 9.38471 17.557C7.55861 16.9076 8.01133 14.4012 9.03724 12.4109C10.701 9.18297 14.6487 5.21614 17.0264 5.81819C19.4283 6.419 17.4399 10.2403 17.4399 10.2403C17.4399 10.2403 17.9179 10.3012 19.0631 9.53499C20.7116 8.43164 22.8877 5.46368 25.2439 5.81197C26.3548 5.97617 27.3896 7.08947 25.9744 9.20411C25.5229 9.88329 24.7658 10.4903 24.1863 9.88951C23.8249 9.51633 24.1406 8.83592 24.5198 8.37069C24.6674 8.18105 24.8602 8.0299 25.0814 7.93055C25.3025 7.83121 25.5451 7.78671 25.7879 7.80098C25.7879 7.80098 26.1773 6.93025 25.1868 6.94268C24.3854 6.95761 22.3564 8.78989 21.2113 10.6408C20.1613 12.34 18.5698 15.2346 20.1676 15.8652C21.6323 16.4449 24.4196 13.1996 25.7106 11.4991C27.0015 9.7987 29.9436 5.94507 32.4114 5.79082C33.261 5.73609 33.767 6.49612 33.767 6.49612L34.0523 6.05329H36.5201C36.5201 6.05329 31.8724 13.661 31.5097 14.237C31.2244 14.6873 30.8452 15.6998 31.8902 15.1326C32.9351 14.5654 35.1252 11.8064 35.1252 11.8064ZM33.7822 23.9967C31.9652 22.7629 29.7894 22.1401 27.5811 22.2216C26.9834 22.2376 26.3979 22.3916 25.8722 22.671C25.3465 22.9505 24.8953 23.3475 24.5553 23.83C23.6144 22.2191 21.754 21.2302 18.8779 21.2526C14.2302 21.3049 9.62058 23.4071 5.96838 23.4046C2.46835 23.4046 -0.0843942 21.2464 -0.00196597 17.4139C0.151477 10.6881 5.94555 4.6315 10.2699 1.90609C12.763 0.340011 14.8478 -0.125211 16.211 0.0253019C17.2053 0.133522 18.4011 1.2605 17.6466 2.92112C16.5382 5.34799 15.0076 5.14897 15.0647 3.9884C15.0964 3.23335 15.6087 2.75817 15.9942 2.49571C16.2389 2.33027 16.6714 2.283 16.8971 2.27802C17.1165 2.09641 17.2775 0.767916 15.5022 1.20453C13.7268 1.64114 11.571 3.35774 9.52421 5.57563C7.47745 7.79352 4.29064 11.9855 3.50314 16.3877C3.13538 18.4289 3.37633 22.152 8.31061 22.1097C12.4954 22.0761 18.6636 19.3731 24.3321 19.4291C26.5323 19.4502 28.4472 20.0323 29.9398 20.9354C31.4057 21.8211 33.1634 23.1148 33.7873 23.9979" fill="#FAF9F6"/>
</g>
<defs>
<clipPath id="clip0_20_363">
<rect width="78" height="24" fill="white"/>
</clipPath>
</defs>
</svg>
